<mxfile host="app.diagrams.net" modified="2024-05-03T16:54:22.590Z" agent="Mozilla/5.0 (Windows NT 10.0; Win64; x64) AppleWebKit/537.36 (KHTML, like Gecko) Chrome/124.0.0.0 Safari/537.36 Edg/124.0.0.0" etag="DZOeG-g75OUqZa656ibd" version="24.3.1" type="google">
  <diagram name="PÃ¡gina-1" id="tLm6_O60PLYHmQy_NTAt">
    <mxGraphModel grid="1" page="1" gridSize="10" guides="1" tooltips="1" connect="1" arrows="1" fold="1" pageScale="1" pageWidth="827" pageHeight="1169" math="0" shadow="0">
      <root>
        <mxCell id="0" />
        <mxCell id="1" parent="0" />
        <mxCell id="Hq4ie5jpWhGbl7BbZjY2-3" value="" style="edgeStyle=orthogonalEdgeStyle;rounded=0;orthogonalLoop=1;jettySize=auto;html=1;" edge="1" parent="1" source="Hq4ie5jpWhGbl7BbZjY2-1" target="Hq4ie5jpWhGbl7BbZjY2-2">
          <mxGeometry relative="1" as="geometry" />
        </mxCell>
        <mxCell id="Hq4ie5jpWhGbl7BbZjY2-1" value="INICIO" style="ellipse;whiteSpace=wrap;html=1;" vertex="1" parent="1">
          <mxGeometry x="360" y="30" width="80" height="80" as="geometry" />
        </mxCell>
        <mxCell id="Hq4ie5jpWhGbl7BbZjY2-5" value="" style="edgeStyle=orthogonalEdgeStyle;rounded=0;orthogonalLoop=1;jettySize=auto;html=1;" edge="1" parent="1" source="Hq4ie5jpWhGbl7BbZjY2-2" target="Hq4ie5jpWhGbl7BbZjY2-4">
          <mxGeometry relative="1" as="geometry" />
        </mxCell>
        <mxCell id="Hq4ie5jpWhGbl7BbZjY2-2" value="INPUT&amp;nbsp;&lt;div&gt;a, b&lt;/div&gt;" style="shape=parallelogram;perimeter=parallelogramPerimeter;whiteSpace=wrap;html=1;fixedSize=1;" vertex="1" parent="1">
          <mxGeometry x="340" y="140" width="120" height="60" as="geometry" />
        </mxCell>
        <mxCell id="Hq4ie5jpWhGbl7BbZjY2-7" value="" style="edgeStyle=orthogonalEdgeStyle;rounded=0;orthogonalLoop=1;jettySize=auto;html=1;" edge="1" parent="1" source="Hq4ie5jpWhGbl7BbZjY2-4" target="Hq4ie5jpWhGbl7BbZjY2-6">
          <mxGeometry relative="1" as="geometry" />
        </mxCell>
        <mxCell id="Hq4ie5jpWhGbl7BbZjY2-4" value="mcd = 1&lt;div&gt;i = 2&lt;/div&gt;" style="whiteSpace=wrap;html=1;" vertex="1" parent="1">
          <mxGeometry x="340" y="220" width="120" height="60" as="geometry" />
        </mxCell>
        <mxCell id="Hq4ie5jpWhGbl7BbZjY2-9" value="" style="edgeStyle=orthogonalEdgeStyle;rounded=0;orthogonalLoop=1;jettySize=auto;html=1;" edge="1" parent="1" source="Hq4ie5jpWhGbl7BbZjY2-6" target="Hq4ie5jpWhGbl7BbZjY2-8">
          <mxGeometry relative="1" as="geometry" />
        </mxCell>
        <mxCell id="Hq4ie5jpWhGbl7BbZjY2-15" value="" style="edgeStyle=orthogonalEdgeStyle;rounded=0;orthogonalLoop=1;jettySize=auto;html=1;" edge="1" parent="1" source="Hq4ie5jpWhGbl7BbZjY2-6" target="Hq4ie5jpWhGbl7BbZjY2-14">
          <mxGeometry relative="1" as="geometry" />
        </mxCell>
        <mxCell id="Hq4ie5jpWhGbl7BbZjY2-6" value="a==0" style="rhombus;whiteSpace=wrap;html=1;" vertex="1" parent="1">
          <mxGeometry x="360" y="330" width="80" height="80" as="geometry" />
        </mxCell>
        <mxCell id="Hq4ie5jpWhGbl7BbZjY2-11" value="" style="edgeStyle=orthogonalEdgeStyle;rounded=0;orthogonalLoop=1;jettySize=auto;html=1;" edge="1" parent="1" source="Hq4ie5jpWhGbl7BbZjY2-8" target="Hq4ie5jpWhGbl7BbZjY2-10">
          <mxGeometry relative="1" as="geometry" />
        </mxCell>
        <mxCell id="Hq4ie5jpWhGbl7BbZjY2-8" value="OUTPUT&lt;div&gt;b&lt;/div&gt;" style="shape=parallelogram;perimeter=parallelogramPerimeter;whiteSpace=wrap;html=1;fixedSize=1;" vertex="1" parent="1">
          <mxGeometry x="470" y="340" width="120" height="60" as="geometry" />
        </mxCell>
        <mxCell id="Hq4ie5jpWhGbl7BbZjY2-10" value="FIN" style="ellipse;whiteSpace=wrap;html=1;" vertex="1" parent="1">
          <mxGeometry x="610" y="330" width="80" height="80" as="geometry" />
        </mxCell>
        <mxCell id="Hq4ie5jpWhGbl7BbZjY2-12" value="SI" style="text;html=1;align=center;verticalAlign=middle;resizable=0;points=[];autosize=1;strokeColor=none;fillColor=none;" vertex="1" parent="1">
          <mxGeometry x="435" y="338" width="30" height="30" as="geometry" />
        </mxCell>
        <mxCell id="Hq4ie5jpWhGbl7BbZjY2-13" value="NO" style="text;html=1;align=center;verticalAlign=middle;resizable=0;points=[];autosize=1;strokeColor=none;fillColor=none;" vertex="1" parent="1">
          <mxGeometry x="400" y="410" width="40" height="30" as="geometry" />
        </mxCell>
        <mxCell id="Hq4ie5jpWhGbl7BbZjY2-17" value="" style="edgeStyle=orthogonalEdgeStyle;rounded=0;orthogonalLoop=1;jettySize=auto;html=1;" edge="1" parent="1" source="Hq4ie5jpWhGbl7BbZjY2-14" target="Hq4ie5jpWhGbl7BbZjY2-16">
          <mxGeometry relative="1" as="geometry" />
        </mxCell>
        <mxCell id="Hq4ie5jpWhGbl7BbZjY2-21" value="" style="edgeStyle=orthogonalEdgeStyle;rounded=0;orthogonalLoop=1;jettySize=auto;html=1;" edge="1" parent="1" source="Hq4ie5jpWhGbl7BbZjY2-14" target="Hq4ie5jpWhGbl7BbZjY2-20">
          <mxGeometry relative="1" as="geometry" />
        </mxCell>
        <mxCell id="Hq4ie5jpWhGbl7BbZjY2-14" value="b==0" style="rhombus;whiteSpace=wrap;html=1;" vertex="1" parent="1">
          <mxGeometry x="360" y="450" width="80" height="80" as="geometry" />
        </mxCell>
        <mxCell id="Hq4ie5jpWhGbl7BbZjY2-19" value="" style="edgeStyle=orthogonalEdgeStyle;rounded=0;orthogonalLoop=1;jettySize=auto;html=1;" edge="1" parent="1" source="Hq4ie5jpWhGbl7BbZjY2-16" target="Hq4ie5jpWhGbl7BbZjY2-18">
          <mxGeometry relative="1" as="geometry" />
        </mxCell>
        <mxCell id="Hq4ie5jpWhGbl7BbZjY2-16" value="OUTPUT&lt;div&gt;a&lt;/div&gt;" style="shape=parallelogram;perimeter=parallelogramPerimeter;whiteSpace=wrap;html=1;fixedSize=1;" vertex="1" parent="1">
          <mxGeometry x="470" y="460" width="120" height="60" as="geometry" />
        </mxCell>
        <mxCell id="Hq4ie5jpWhGbl7BbZjY2-18" value="FIN" style="ellipse;whiteSpace=wrap;html=1;" vertex="1" parent="1">
          <mxGeometry x="620" y="450" width="80" height="80" as="geometry" />
        </mxCell>
        <mxCell id="Hq4ie5jpWhGbl7BbZjY2-25" value="" style="edgeStyle=orthogonalEdgeStyle;rounded=0;orthogonalLoop=1;jettySize=auto;html=1;" edge="1" parent="1" source="Hq4ie5jpWhGbl7BbZjY2-20" target="Hq4ie5jpWhGbl7BbZjY2-24">
          <mxGeometry relative="1" as="geometry" />
        </mxCell>
        <mxCell id="Hq4ie5jpWhGbl7BbZjY2-31" value="" style="edgeStyle=orthogonalEdgeStyle;rounded=0;orthogonalLoop=1;jettySize=auto;html=1;" edge="1" parent="1" source="Hq4ie5jpWhGbl7BbZjY2-20" target="Hq4ie5jpWhGbl7BbZjY2-30">
          <mxGeometry relative="1" as="geometry" />
        </mxCell>
        <mxCell id="Hq4ie5jpWhGbl7BbZjY2-20" value="a&amp;gt;=i and b&amp;gt;=i" style="rhombus;whiteSpace=wrap;html=1;" vertex="1" parent="1">
          <mxGeometry x="350" y="560" width="100" height="80" as="geometry" />
        </mxCell>
        <mxCell id="Hq4ie5jpWhGbl7BbZjY2-22" value="SI" style="text;html=1;align=center;verticalAlign=middle;resizable=0;points=[];autosize=1;strokeColor=none;fillColor=none;" vertex="1" parent="1">
          <mxGeometry x="445" y="458" width="30" height="30" as="geometry" />
        </mxCell>
        <mxCell id="Hq4ie5jpWhGbl7BbZjY2-23" value="NO" style="text;html=1;align=center;verticalAlign=middle;resizable=0;points=[];autosize=1;strokeColor=none;fillColor=none;" vertex="1" parent="1">
          <mxGeometry x="400" y="528" width="40" height="30" as="geometry" />
        </mxCell>
        <mxCell id="Hq4ie5jpWhGbl7BbZjY2-27" value="" style="edgeStyle=orthogonalEdgeStyle;rounded=0;orthogonalLoop=1;jettySize=auto;html=1;" edge="1" parent="1" source="Hq4ie5jpWhGbl7BbZjY2-24" target="Hq4ie5jpWhGbl7BbZjY2-26">
          <mxGeometry relative="1" as="geometry" />
        </mxCell>
        <mxCell id="Hq4ie5jpWhGbl7BbZjY2-24" value="OUTPUT&lt;div&gt;mcd&lt;/div&gt;" style="shape=parallelogram;perimeter=parallelogramPerimeter;whiteSpace=wrap;html=1;fixedSize=1;" vertex="1" parent="1">
          <mxGeometry x="475" y="570" width="120" height="60" as="geometry" />
        </mxCell>
        <mxCell id="Hq4ie5jpWhGbl7BbZjY2-26" value="FIN" style="ellipse;whiteSpace=wrap;html=1;" vertex="1" parent="1">
          <mxGeometry x="620" y="560" width="80" height="80" as="geometry" />
        </mxCell>
        <mxCell id="Hq4ie5jpWhGbl7BbZjY2-28" value="NO" style="text;html=1;align=center;verticalAlign=middle;resizable=0;points=[];autosize=1;strokeColor=none;fillColor=none;" vertex="1" parent="1">
          <mxGeometry x="440" y="568" width="40" height="30" as="geometry" />
        </mxCell>
        <mxCell id="Hq4ie5jpWhGbl7BbZjY2-29" value="SI" style="text;html=1;align=center;verticalAlign=middle;resizable=0;points=[];autosize=1;strokeColor=none;fillColor=none;" vertex="1" parent="1">
          <mxGeometry x="405" y="640" width="30" height="30" as="geometry" />
        </mxCell>
        <mxCell id="Hq4ie5jpWhGbl7BbZjY2-32" style="edgeStyle=orthogonalEdgeStyle;rounded=0;orthogonalLoop=1;jettySize=auto;html=1;entryX=0;entryY=0.5;entryDx=0;entryDy=0;" edge="1" parent="1" source="Hq4ie5jpWhGbl7BbZjY2-40" target="Hq4ie5jpWhGbl7BbZjY2-20">
          <mxGeometry relative="1" as="geometry">
            <Array as="points">
              <mxPoint x="310" y="600" />
            </Array>
          </mxGeometry>
        </mxCell>
        <mxCell id="Hq4ie5jpWhGbl7BbZjY2-35" value="" style="edgeStyle=orthogonalEdgeStyle;rounded=0;orthogonalLoop=1;jettySize=auto;html=1;" edge="1" parent="1" source="Hq4ie5jpWhGbl7BbZjY2-30" target="Hq4ie5jpWhGbl7BbZjY2-34">
          <mxGeometry relative="1" as="geometry" />
        </mxCell>
        <mxCell id="Hq4ie5jpWhGbl7BbZjY2-30" value="a%i==0 and b%i==0" style="rhombus;whiteSpace=wrap;html=1;" vertex="1" parent="1">
          <mxGeometry x="345" y="690" width="110" height="80" as="geometry" />
        </mxCell>
        <mxCell id="Hq4ie5jpWhGbl7BbZjY2-33" value="SI" style="text;html=1;align=center;verticalAlign=middle;resizable=0;points=[];autosize=1;strokeColor=none;fillColor=none;" vertex="1" parent="1">
          <mxGeometry x="415" y="758" width="30" height="30" as="geometry" />
        </mxCell>
        <mxCell id="Hq4ie5jpWhGbl7BbZjY2-38" value="" style="edgeStyle=orthogonalEdgeStyle;rounded=0;orthogonalLoop=1;jettySize=auto;html=1;entryX=1;entryY=0.5;entryDx=0;entryDy=0;" edge="1" parent="1" source="Hq4ie5jpWhGbl7BbZjY2-34" target="Hq4ie5jpWhGbl7BbZjY2-30">
          <mxGeometry relative="1" as="geometry">
            <mxPoint x="500" y="840" as="targetPoint" />
            <Array as="points">
              <mxPoint x="480" y="840" />
              <mxPoint x="480" y="730" />
            </Array>
          </mxGeometry>
        </mxCell>
        <mxCell id="Hq4ie5jpWhGbl7BbZjY2-34" value="mcd = mcd * i&lt;div&gt;a = a/ i&lt;/div&gt;&lt;div&gt;b = b/ i&lt;/div&gt;" style="whiteSpace=wrap;html=1;" vertex="1" parent="1">
          <mxGeometry x="340" y="810" width="120" height="60" as="geometry" />
        </mxCell>
        <mxCell id="Hq4ie5jpWhGbl7BbZjY2-36" value="NO" style="text;html=1;align=center;verticalAlign=middle;resizable=0;points=[];autosize=1;strokeColor=none;fillColor=none;" vertex="1" parent="1">
          <mxGeometry x="320" y="698" width="40" height="30" as="geometry" />
        </mxCell>
        <mxCell id="Hq4ie5jpWhGbl7BbZjY2-41" value="" style="edgeStyle=orthogonalEdgeStyle;rounded=0;orthogonalLoop=1;jettySize=auto;html=1;entryX=0;entryY=0.5;entryDx=0;entryDy=0;" edge="1" parent="1" source="Hq4ie5jpWhGbl7BbZjY2-30" target="Hq4ie5jpWhGbl7BbZjY2-40">
          <mxGeometry relative="1" as="geometry">
            <mxPoint x="345" y="730" as="sourcePoint" />
            <mxPoint x="350" y="600" as="targetPoint" />
            <Array as="points">
              <mxPoint x="310" y="730" />
            </Array>
          </mxGeometry>
        </mxCell>
        <mxCell id="Hq4ie5jpWhGbl7BbZjY2-40" value="++i" style="whiteSpace=wrap;html=1;" vertex="1" parent="1">
          <mxGeometry x="280" y="650" width="60" height="30" as="geometry" />
        </mxCell>
      </root>
    </mxGraphModel>
  </diagram>
</mxfile>
